<?xml version="1.0" encoding="UTF-8"?>
<svg version="1.1" xmlns="http://www.w3.org/2000/svg" width="180" height="180">
<path d="M0 0 C0.81146484 0.42925781 1.62292969 0.85851562 2.45898438 1.30078125 C3.55786987 1.86756592 3.55786987 1.86756592 4.67895508 2.44580078 C5.40687256 2.85427246 6.13479004 3.26274414 6.88476562 3.68359375 C7.96238159 4.28518311 7.96238159 4.28518311 9.06176758 4.89892578 C9.95597412 5.40278809 10.85018066 5.90665039 11.77148438 6.42578125 C14.63835937 8.03453125 17.50523438 9.64328125 20.45898438 11.30078125 C20.45898438 20.54078125 20.45898438 29.78078125 20.45898438 39.30078125 C17.09710938 41.32203125 13.73523438 43.34328125 10.27148438 45.42578125 C9.22065674 46.07047363 8.1698291 46.71516602 7.0871582 47.37939453 C6.24693115 47.87165527 5.4067041 48.36391602 4.54101562 48.87109375 C3.26061401 49.64090576 3.26061401 49.64090576 1.9543457 50.42626953 C-0.54101562 51.30078125 -0.54101562 51.30078125 -3.08203125 50.6015625 C-3.89349609 50.17230469 -4.70496094 49.74304688 -5.54101562 49.30078125 C-6.27360596 48.9229248 -7.00619629 48.54506836 -7.76098633 48.15576172 C-8.85286255 47.5430542 -8.85286255 47.5430542 -9.96679688 46.91796875 C-10.68520752 46.51690918 -11.40361816 46.11584961 -12.14379883 45.70263672 C-13.48510864 44.94684326 -13.48510864 44.94684326 -14.85351562 44.17578125 C-17.72039062 42.56703125 -20.58726563 40.95828125 -23.54101562 39.30078125 C-23.54101562 30.06078125 -23.54101562 20.82078125 -23.54101562 11.30078125 C-20.17914063 9.27953125 -16.81726563 7.25828125 -13.35351562 5.17578125 C-11.77727417 4.20874268 -11.77727417 4.20874268 -10.16918945 3.22216797 C-9.3289624 2.72990723 -8.48873535 2.23764648 -7.62304688 1.73046875 C-6.7694458 1.21726074 -5.91584473 0.70405273 -5.03637695 0.17529297 C-2.54101562 -0.69921875 -2.54101562 -0.69921875 0 0 Z " fill="#FFFFFF" transform="translate(91.541015625,64.69921875)"/>
<path d="M0 0 C7.053488 5.90189812 13.35237064 12.16759257 19.35546875 19.1328125 C21.47130895 21.53512038 23.7024661 23.77208834 26 26 C24.5158627 29.48654476 22.53785948 31.64191072 19.8125 34.25 C16.25383938 37.72325277 12.94182473 41.29764937 9.70703125 45.0703125 C6.94778419 48.18946136 3.98412025 51.09751222 1 54 C-2.74064313 50.80486733 -6.47357345 47.60116884 -10.1875 44.375 C-10.82042969 43.82585937 -11.45335937 43.27671875 -12.10546875 42.7109375 C-12.73066406 42.14632812 -13.35585937 41.58171875 -14 41 C-14.72058594 40.46890625 -15.44117187 39.9378125 -16.18359375 39.390625 C-20.23854209 34.05378976 -19.1661581 25.73535722 -18.50292969 19.34130859 C-17.23312318 13.42992783 -12.64952419 10.35213571 -8 7 C-6.44689566 5.63793245 -4.90390991 4.26417083 -3.375 2.875 C-2.25324896 1.91286571 -1.12960204 0.95290451 0 0 Z " fill="#FFFFFF" transform="translate(140,63)"/>
<path d="M0 0 C3.74064313 3.19513267 7.47357345 6.39883116 11.1875 9.625 C11.82042969 10.17414063 12.45335937 10.72328125 13.10546875 11.2890625 C13.73066406 11.85367188 14.35585938 12.41828125 15 13 C15.72058594 13.53109375 16.44117188 14.0621875 17.18359375 14.609375 C21.23854209 19.94621024 20.1661581 28.26464278 19.50292969 34.65869141 C18.23312318 40.57007217 13.64952419 43.64786429 9 47 C7.44689566 48.36206755 5.90390991 49.73582917 4.375 51.125 C3.25324896 52.08713429 2.12960204 53.04709549 1 54 C-6.053488 48.09810188 -12.35237064 41.83240743 -18.35546875 34.8671875 C-20.47130895 32.46487962 -22.7024661 30.22791166 -25 28 C-23.5158627 24.51345524 -21.53785948 22.35808928 -18.8125 19.75 C-15.25383938 16.27674723 -11.94182473 12.70235063 -8.70703125 8.9296875 C-5.94778419 5.81053864 -2.98412025 2.90248778 0 0 Z " fill="#FFFFFF" transform="translate(39,63)"/>
<path d="M0 0 C1.2065625 0.96486328 1.2065625 0.96486328 2.4375 1.94921875 C3.47132812 2.42230469 4.50515625 2.89539063 5.5703125 3.3828125 C10.18527442 7.51364354 10.34922695 12.76783193 11.3125 18.69921875 C11.52390625 19.87355469 11.7353125 21.04789063 11.953125 22.2578125 C12.47073845 25.15174226 12.96449877 28.04772128 13.4375 30.94921875 C8.44580443 32.31521404 3.44612244 33.64691185 -1.5625 34.94921875 C-2.32095215 35.14660645 -3.0794043 35.34399414 -3.86083984 35.54736328 C-6.13336696 36.1317274 -8.40949558 36.69912559 -10.6875 37.26171875 C-11.39704834 37.44508789 -12.10659668 37.62845703 -12.83764648 37.81738281 C-17.06455225 38.84068052 -19.13439666 38.83483942 -23.5625 37.94921875 C-26.8625 27.05921875 -30.1625 16.16921875 -33.5625 4.94921875 C-25.637719 -2.97556225 -9.19126268 -6.23492666 0 0 Z " fill="#FFFFFF" transform="translate(74.5625,117.05078125)"/>
<path d="M0 0 C1.66467359 0.67162792 3.33087842 1.3395037 5 2 C3.75988147 6.34308261 2.51462654 10.68464711 1.26464844 15.02490234 C0.84039083 16.50073585 0.41752439 17.97697004 -0.00390625 19.45361328 C-0.61090131 21.57952758 -1.22293179 23.70393718 -1.8359375 25.828125 C-2.02247894 26.48556702 -2.20902039 27.14300903 -2.4012146 27.82037354 C-3.33999823 31.05509939 -4.35757532 34.05272409 -6 37 C-13.27380747 36.28159926 -20.26630843 34.6689287 -27.375 33 C-28.56222656 32.72671875 -29.74945313 32.4534375 -30.97265625 32.171875 C-39.73067697 30.13466151 -39.73067697 30.13466151 -42 29 C-39.99148955 6.32326913 -39.99148955 6.32326913 -33.5859375 -0.09765625 C-22.32787179 -8.76909466 -11.99135252 -5.26302383 0 0 Z " fill="#FFFFFF" transform="translate(134,119)"/>
<path d="M0 0 C4.95 16.335 4.95 16.335 10 33 C4.50675695 38.49324305 -6.48285977 40.9066728 -14 42 C-18.97236445 41.06209892 -22.09372118 39.12377104 -26 36 C-27.03382812 35.52691406 -28.06765625 35.05382813 -29.1328125 34.56640625 C-33.74777442 30.43557521 -33.91172695 25.18138682 -34.875 19.25 C-35.08640625 18.07566406 -35.2978125 16.90132812 -35.515625 15.69140625 C-36.03323845 12.79747649 -36.52699877 9.90149747 -37 7 C-32.00830443 5.63400471 -27.00862244 4.3023069 -22 3 C-21.24154785 2.8026123 -20.4830957 2.60522461 -19.70166016 2.40185547 C-17.42913304 1.81749135 -15.15300442 1.25009316 -12.875 0.6875 C-12.16545166 0.50413086 -11.45590332 0.32076172 -10.72485352 0.13183594 C-6.49794775 -0.89146177 -4.42810334 -0.88562067 0 0 Z " fill="#FFFFFF" transform="translate(129,25)"/>
<path d="M0 0 C7.27380747 0.71840074 14.26630843 2.3310713 21.375 4 C22.56222656 4.27328125 23.74945313 4.5465625 24.97265625 4.828125 C33.73067697 6.86533849 33.73067697 6.86533849 36 8 C33.99148955 30.67673087 33.99148955 30.67673087 27.5859375 37.09765625 C22.68450796 40.87294461 17.61082671 43.26127066 11.33447266 42.80712891 C5.24021158 41.67313488 -0.34580696 39.48163438 -6 37 C-7.66467359 36.32837208 -9.33087842 35.6604963 -11 35 C-9.75988147 30.65691739 -8.51462654 26.31535289 -7.26464844 21.97509766 C-6.84039083 20.49926415 -6.41752439 19.02302996 -5.99609375 17.54638672 C-5.38909869 15.42047242 -4.77706821 13.29606282 -4.1640625 11.171875 C-3.97752106 10.51443298 -3.79097961 9.85699097 -3.5987854 9.17962646 C-2.66000177 5.94490061 -1.64242468 2.94727591 0 0 Z " fill="#FFFFFF" transform="translate(52,24)"/>
</svg>
